<?xml version="1.0" encoding="utf-8"?>
<!-- Generator: Adobe Illustrator 24.1.1, SVG Export Plug-In . SVG Version: 6.00 Build 0)  -->
<svg version="1.1" id="Livello_1" xmlns="http://www.w3.org/2000/svg" xmlns:xlink="http://www.w3.org/1999/xlink" x="0px" y="0px"
	 viewBox="0 0 595.3 841.9" style="enable-background:new 0 0 595.3 841.9;" xml:space="preserve">
<style type="text/css">
	.st0{fill:#F7931E;}
</style>
<path class="st0" d="M102.2,449.9c0,6.5-2.3,12.4-6.2,17c-5.1,6.1-13,9.8-21.6,9.3c-7.5-0.4-14.1-3.9-18.6-9.3
	c-3.6-4.2-5.8-9.6-6.1-15.5c-0.4-7.1,2-13.6,6.2-18.5c4.8-5.7,12.1-9.3,20.1-9.3c4.6,0,8.9,1.2,12.6,3.2c1.1,0.6,1.1,2.3-0.1,2.8
	c-1.6,0.7-3,1.9-4,3.3c-1,1.4-1.6,3.2-1.7,5c-0.3,5.8,4.5,10.6,10.3,10.3c2.5-0.1,4.7-1.2,6.3-2.8c0.9-0.9,2.5-0.4,2.7,0.9
	C102.2,447.5,102.2,448.7,102.2,449.9z"/>
<path class="st0" d="M75.9,488.9c-21.5,0-39-17.5-39-39c0-21.5,17.5-39,39-39c14.8,0,27.6,8.2,34.2,20.3c0.6,1.1,1.7,1.7,2.9,1.7h0
	c2.5,0,4.2-2.7,2.9-4.9c-7.7-14.1-22.7-23.7-39.9-23.8c-25.2-0.1-45.8,20.4-45.8,45.6c0,25.3,20.4,45.8,45.7,45.8
	c17.3,0,32.3-9.6,40.1-23.7c1.2-2.2-0.4-5-2.9-5h0c-1.2,0-2.3,0.7-2.9,1.7C103.5,480.7,90.7,488.9,75.9,488.9z"/>
<g>
	<path class="st0" d="M143.5,436.1c2.4-4.1,5.6-7.2,9.7-9.5c4.1-2.3,8.6-3.4,13.5-3.4c5.6,0,10.5,1.4,14.9,4.1
		c4.3,2.7,7.5,6.6,9.5,11.6h-10.3c-1.4-2.8-3.2-4.8-5.7-6.2c-2.4-1.4-5.2-2-8.4-2c-3.5,0-6.6,0.8-9.3,2.3c-2.7,1.6-4.8,3.8-6.4,6.7
		c-1.5,2.9-2.3,6.3-2.3,10.2c0,3.9,0.8,7.3,2.3,10.2c1.5,2.9,3.7,5.2,6.4,6.7s5.8,2.4,9.3,2.4c3.2,0,6-0.7,8.4-2
		c2.4-1.4,4.3-3.4,5.7-6.2h10.3c-2,5-5.1,8.9-9.5,11.6c-4.3,2.7-9.3,4.1-14.9,4.1c-4.9,0-9.4-1.1-13.5-3.4s-7.3-5.5-9.7-9.5
		c-2.4-4.1-3.6-8.7-3.6-13.8C139.9,444.8,141.1,440.2,143.5,436.1z"/>
	<path class="st0" d="M214.7,435.8c2.1-1.2,4.6-1.8,7.4-1.8v8.9h-2.2c-3.4,0-5.9,0.9-7.7,2.6c-1.7,1.7-2.6,4.7-2.6,8.9v21.9h-8.6
		v-41.5h8.6v6C210.9,438.6,212.6,437,214.7,435.8z"/>
	<path class="st0" d="M267.7,434.7v41.5h-8.6v-4.9c-1.4,1.7-3.1,3.1-5.3,4c-2.2,1-4.5,1.5-7,1.5c-3.3,0-6.2-0.7-8.8-2
		c-2.6-1.4-4.6-3.4-6.1-6c-1.5-2.7-2.2-5.9-2.2-9.7v-24.4h8.5v23.1c0,3.7,0.9,6.6,2.8,8.6c1.9,2,4.4,3,7.6,3c3.2,0,5.8-1,7.7-3
		c1.9-2,2.8-4.8,2.8-8.6v-23.1H267.7z"/>
	<path class="st0" d="M308.7,436c2.6,1.4,4.6,3.4,6.1,6c1.5,2.7,2.2,5.9,2.2,9.6v24.5h-8.5V453c0-3.7-0.9-6.6-2.8-8.6s-4.4-3-7.6-3
		c-3.2,0-5.8,1-7.7,3s-2.8,4.8-2.8,8.6v23.2H279v-41.5h8.6v4.7c1.4-1.7,3.2-3,5.4-4c2.2-1,4.5-1.4,7-1.4
		C303.2,434,306.1,434.7,308.7,436z"/>
	<path class="st0" d="M327.6,444.2c1.7-3.2,4.1-5.7,7.2-7.5c3.1-1.8,6.6-2.6,10.6-2.6c5,0,9.2,1.2,12.5,3.6
		c3.3,2.4,5.5,5.8,6.7,10.2h-9.3c-0.8-2.1-2-3.7-3.6-4.8c-1.7-1.2-3.7-1.7-6.3-1.7c-3.5,0-6.3,1.2-8.4,3.7c-2.1,2.5-3.1,6-3.1,10.4
		c0,4.5,1,8,3.1,10.5c2.1,2.5,4.9,3.8,8.4,3.8c5,0,8.3-2.2,9.9-6.6h9.3c-1.2,4.2-3.5,7.6-6.8,10.1c-3.3,2.5-7.4,3.7-12.4,3.7
		c-4,0-7.5-0.9-10.6-2.7c-3.1-1.8-5.5-4.3-7.2-7.5c-1.7-3.2-2.6-7-2.6-11.3C325,451.2,325.9,447.4,327.6,444.2z"/>
	<path class="st0" d="M403.1,436c2.5,1.4,4.4,3.4,5.9,6c1.4,2.7,2.1,5.9,2.1,9.6v24.5h-8.5V453c0-3.7-0.9-6.6-2.8-8.6s-4.4-3-7.6-3
		c-3.2,0-5.8,1-7.7,3s-2.8,4.8-2.8,8.6v23.2h-8.6v-55.8h8.6v19.1c1.5-1.8,3.3-3.1,5.5-4.1c2.2-1,4.7-1.4,7.4-1.4
		C397.8,434,400.6,434.7,403.1,436z"/>
	<path class="st0" d="M459.4,434.7L434,495.8h-8.9l8.4-20.2l-16.4-40.9h9.6l11.7,31.7l12.1-31.7H459.4z"/>
	<path class="st0" d="M479.5,435.8c2.1-1.2,4.6-1.8,7.4-1.8v8.9h-2.2c-3.4,0-5.9,0.9-7.7,2.6c-1.7,1.7-2.6,4.7-2.6,8.9v21.9h-8.6
		v-41.5h8.6v6C475.8,438.6,477.4,437,479.5,435.8z"/>
	<path class="st0" d="M502.3,474.2c-3.2-1.8-5.7-4.3-7.5-7.5c-1.8-3.2-2.7-7-2.7-11.3c0-4.2,0.9-8,2.8-11.2c1.9-3.3,4.4-5.8,7.6-7.5
		c3.2-1.8,6.8-2.6,10.8-2.6c4,0,7.6,0.9,10.8,2.6c3.2,1.8,5.8,4.3,7.6,7.5c1.9,3.3,2.8,7,2.8,11.2s-1,8-2.9,11.2
		c-1.9,3.3-4.5,5.8-7.8,7.6c-3.3,1.8-6.9,2.7-10.9,2.7C509,476.9,505.4,476,502.3,474.2z M519.1,467.9c1.9-1.1,3.5-2.6,4.7-4.7
		c1.2-2.1,1.8-4.7,1.8-7.7s-0.6-5.6-1.7-7.7c-1.2-2.1-2.7-3.7-4.6-4.7c-1.9-1.1-4-1.6-6.2-1.6c-2.2,0-4.3,0.5-6.1,1.6
		c-1.9,1.1-3.4,2.6-4.5,4.7c-1.1,2.1-1.7,4.6-1.7,7.7c0,4.5,1.1,7.9,3.4,10.4c2.3,2.4,5.2,3.7,8.6,3.7
		C515.1,469.4,517.2,468.9,519.1,467.9z"/>
	<path class="st0" d="M551.6,420.4v55.8H543v-55.8H551.6z"/>
	<path class="st0" d="M571.5,420.4v55.8h-8.6v-55.8H571.5z"/>
</g>
<g>
</g>
<g>
</g>
<g>
</g>
<g>
</g>
<g>
</g>
</svg>
