<svg id="Livello_1" data-name="Livello 1" xmlns="http://www.w3.org/2000/svg" viewBox="0 0 99.93 105.94"><defs><style>.cls-1{fill:#f7931e;}</style></defs><path class="cls-1" d="M331.17,479.8A30.51,30.51,0,1,1,315.26,453a1.84,1.84,0,0,1-.1,3.28,11.31,11.31,0,1,0,12.64,18.35,1.83,1.83,0,0,1,3.09,1.06A31,31,0,0,1,331.17,479.8Z" transform="translate(-247.67 -426.83)"/><path class="cls-1" d="M300.64,525a45.22,45.22,0,1,1,39.68-66.91,3.87,3.87,0,0,0,3.4,2h0a3.88,3.88,0,0,0,3.4-5.74,53,53,0,1,0,0,50.86,3.88,3.88,0,0,0-3.39-5.75h0a3.86,3.86,0,0,0-3.4,2A45.21,45.21,0,0,1,300.64,525Z" transform="translate(-247.67 -426.83)"/></svg>