<svg id="Livello_1" data-name="Livello 1" xmlns="http://www.w3.org/2000/svg" viewBox="0 0 228.48 229.45"><defs><style>.cls-1{fill:none;stroke-width:15px;}.cls-1,.cls-2{stroke:#fff;stroke-miterlimit:10;}.cls-2{fill:#fff;stroke-width:9px;}</style></defs><path class="cls-1" d="M299.94,345.82a71.51,71.51,0,1,1-118.86-53.56,77,77,0,0,1,6.56-5.18,71.54,71.54,0,0,1,112.3,58.74Z" transform="translate(-149.42 -266.83)"/><path class="cls-2" d="M372.3,490.68a3.75,3.75,0,0,1-2.66,1.11,3.67,3.67,0,0,1-2.64-1.11l-91.55-91.54a62.36,62.36,0,0,0,4.67-5.95l92.18,92.18A3.77,3.77,0,0,1,372.3,490.68Z" transform="translate(-149.42 -266.83)"/></svg>