<svg id="Livello_1" data-name="Livello 1" xmlns="http://www.w3.org/2000/svg" viewBox="0 0 144.75 100.24"><defs><style>.cls-1{fill:#ffba76;}.cls-2{fill:#ba6017;}</style></defs><path class="cls-1" d="M366.36,359.93l-24.44,73.55a1.35,1.35,0,0,1-1.3.86H247.38a1.35,1.35,0,0,1-1.31-.86l-24.35-73.57c-.34-1,.92-1.9,2-1.37L263,378.26a1.46,1.46,0,0,0,1.84-.44l28.39-43.26a1,1,0,0,1,1.64,0L323.33,378a1.46,1.46,0,0,0,1.85.44l39.2-19.9C365.44,358,366.7,358.9,366.36,359.93Z" transform="translate(-221.66 -334.1)"/><path class="cls-2" d="M307.42,399a12.17,12.17,0,1,1-6.35-10.7.73.73,0,0,1,0,1.31,4.54,4.54,0,0,0-1.83,1.53,4.46,4.46,0,0,0-.8,2.32,4.51,4.51,0,0,0,7.68,3.47.73.73,0,0,1,1.23.43A12.55,12.55,0,0,1,307.42,399Z" transform="translate(-221.66 -334.1)"/><path class="cls-2" d="M295.24,417a18.05,18.05,0,1,1,15.83-26.71,1.58,1.58,0,0,0,1.36.8h0a1.55,1.55,0,0,0,1.36-2.29,21.14,21.14,0,1,0,0,20.3,1.55,1.55,0,0,0-1.36-2.29h0a1.58,1.58,0,0,0-1.36.8A18,18,0,0,1,295.24,417Z" transform="translate(-221.66 -334.1)"/></svg>