<svg id="Livello_1" data-name="Livello 1" xmlns="http://www.w3.org/2000/svg" viewBox="0 0 549.72 121.49"><defs><style>.cls-1{fill:#ffba76;}.cls-2{fill:#c46c1c;}</style></defs><path class="cls-1" d="M177.05,353.46,152.62,427a1.35,1.35,0,0,1-1.31.86H58.07a1.35,1.35,0,0,1-1.3-.86L32.42,353.44c-.34-1,.91-1.91,2-1.37l39.25,19.72a1.47,1.47,0,0,0,1.85-.44l28.38-43.27a1,1,0,0,1,1.64,0L134,371.55a1.47,1.47,0,0,0,1.86.43l39.19-19.89C176.13,351.55,177.4,352.43,177.05,353.46Z" transform="translate(-32.36 -306.97)"/><path class="cls-2" d="M201.4,308a54.32,54.32,0,0,1,8.92-.69c4.59,0,8,1.06,10.09,3a9.66,9.66,0,0,1,3.15,7.53,10.63,10.63,0,0,1-2.77,7.69c-2.46,2.61-6.47,3.95-11,3.95a15.9,15.9,0,0,1-3.74-.32v14.42H201.4ZM206,325.34a16,16,0,0,0,3.85.37c5.61,0,9-2.72,9-7.69,0-4.75-3.37-7-8.5-7a19.15,19.15,0,0,0-4.38.38Z" transform="translate(-32.36 -306.97)"/><path class="cls-2" d="M229.81,308a48.48,48.48,0,0,1,8.92-.74c5,0,8.17.9,10.41,2.93a9,9,0,0,1,2.83,6.84,9.47,9.47,0,0,1-6.78,9.19v.16c2.77,1,4.43,3.52,5.29,7.26,1.17,5,2,8.49,2.77,9.88h-4.8c-.59-1-1.39-4.11-2.41-8.6-1.07-5-3-6.84-7.21-7h-4.38v15.6h-4.64Zm4.64,16.4h4.76c5,0,8.11-2.72,8.11-6.84,0-4.64-3.36-6.67-8.27-6.73a19.31,19.31,0,0,0-4.6.43Z" transform="translate(-32.36 -306.97)"/><path class="cls-2" d="M289.46,325.18c0,12.39-7.53,19-16.72,19-9.51,0-16.18-7.37-16.18-18.27,0-11.43,7.1-18.9,16.71-18.9C283.1,307,289.46,314.5,289.46,325.18Zm-27.94.58c0,7.7,4.17,14.58,11.49,14.58s11.53-6.78,11.53-14.95c0-7.16-3.74-14.63-11.48-14.63S261.52,317.86,261.52,325.76Z" transform="translate(-32.36 -306.97)"/><path class="cls-2" d="M303.39,343.55l-11.75-36h5l5.61,17.73c1.55,4.86,2.88,9.24,3.84,13.46h.11c1-4.16,2.51-8.7,4.11-13.4l6.09-17.79h5l-12.87,36Z" transform="translate(-32.36 -306.97)"/><path class="cls-2" d="M328.06,332.23l-3.74,11.32h-4.8l12.23-36h5.6l12.29,36h-5l-3.85-11.32Zm11.8-3.63-3.52-10.37c-.8-2.35-1.34-4.48-1.87-6.56h-.11c-.53,2.13-1.12,4.32-1.81,6.51L329,328.6Z" transform="translate(-32.36 -306.97)"/><path class="cls-2" d="M393.64,342a33.84,33.84,0,0,1-11.06,2c-5.45,0-9.93-1.39-13.46-4.75-3.09-3-5-7.8-5-13.41.06-10.73,7.43-18.58,19.5-18.58a22.43,22.43,0,0,1,9,1.65l-1.12,3.8a18.62,18.62,0,0,0-8-1.55c-8.76,0-14.47,5.45-14.47,14.47s5.5,14.53,13.88,14.53a15.24,15.24,0,0,0,6.2-1V328.38h-7.32v-3.74h11.86Z" transform="translate(-32.36 -306.97)"/><path class="cls-2" d="M400.73,308a48.56,48.56,0,0,1,8.92-.74c5,0,8.17.9,10.42,2.93a9,9,0,0,1,2.83,6.84,9.47,9.47,0,0,1-6.78,9.19v.16c2.77,1,4.43,3.52,5.28,7.26,1.18,5,2,8.49,2.78,9.88h-4.81c-.58-1-1.39-4.11-2.4-8.6-1.07-5-3-6.84-7.21-7h-4.38v15.6h-4.65Zm4.65,16.4h4.75c5,0,8.12-2.72,8.12-6.84,0-4.64-3.36-6.67-8.28-6.73a19.27,19.27,0,0,0-4.59.43Z" transform="translate(-32.36 -306.97)"/><path class="cls-2" d="M435.55,332.23l-3.74,11.32H427l12.24-36h5.6l12.29,36h-5l-3.85-11.32Zm11.8-3.63-3.52-10.37c-.8-2.35-1.34-4.48-1.87-6.56h-.11c-.53,2.13-1.12,4.32-1.81,6.51l-3.53,10.42Z" transform="translate(-32.36 -306.97)"/><path class="cls-2" d="M465.13,311.51H454.18v-4h26.65v4h-11v32h-4.7Z" transform="translate(-32.36 -306.97)"/><path class="cls-2" d="M489.48,307.55v21.31c0,8.07,3.58,11.48,8.39,11.48,5.34,0,8.76-3.52,8.76-11.48V307.55h4.7v21c0,11.06-5.83,15.6-13.62,15.6-7.37,0-12.93-4.22-12.93-15.38V307.55Z" transform="translate(-32.36 -306.97)"/><path class="cls-2" d="M524,307.55v36h-4.65v-36Z" transform="translate(-32.36 -306.97)"/><path class="cls-2" d="M539,311.51H528v-4h26.65v4h-11v32H539Z" transform="translate(-32.36 -306.97)"/><path class="cls-2" d="M560.5,332.23l-3.74,11.32H552l12.23-36h5.6l12.29,36h-5l-3.84-11.32Zm11.8-3.63-3.52-10.37c-.8-2.35-1.33-4.48-1.87-6.56h-.11c-.53,2.13-1.12,4.32-1.81,6.51l-3.53,10.42Z" transform="translate(-32.36 -306.97)"/><path d="M201.4,392.3a54.32,54.32,0,0,1,8.92-.69c4.59,0,8,1.07,10.09,3a9.66,9.66,0,0,1,3.15,7.53,10.61,10.61,0,0,1-2.77,7.69c-2.46,2.62-6.47,3.95-11,3.95a15.9,15.9,0,0,1-3.74-.32v14.42H201.4ZM206,409.66a15.52,15.52,0,0,0,3.85.37c5.61,0,9-2.72,9-7.69,0-4.75-3.37-7-8.5-7a19.15,19.15,0,0,0-4.38.38Z" transform="translate(-32.36 -306.97)"/><path d="M229.81,392.36a48.41,48.41,0,0,1,8.92-.75c5,0,8.17.91,10.41,2.94a8.93,8.93,0,0,1,2.83,6.83,9.46,9.46,0,0,1-6.78,9.19v.16c2.77,1,4.43,3.52,5.29,7.26,1.17,5,2,8.49,2.77,9.88h-4.8c-.59-1-1.39-4.11-2.41-8.6-1.07-5-3-6.83-7.21-7h-4.38v15.59h-4.64Zm4.64,16.39h4.76c5,0,8.11-2.72,8.11-6.83,0-4.65-3.36-6.68-8.27-6.73a19.48,19.48,0,0,0-4.6.42Z" transform="translate(-32.36 -306.97)"/><path d="M277.17,411h-14v13h15.6v3.9H258.54v-36H278v3.89H263.18v11.38h14Z" transform="translate(-32.36 -306.97)"/><path d="M315.14,412.06c-.27-5-.59-11.05-.53-15.54h-.16c-1.23,4.22-2.73,8.71-4.54,13.67l-6.36,17.47H300l-5.82-17.15c-1.71-5.07-3.16-9.72-4.17-14h-.11c-.1,4.49-.37,10.52-.69,15.92l-1,15.43h-4.43l2.5-36h5.93l6.14,17.41c1.5,4.43,2.73,8.38,3.64,12.12h.16c.91-3.63,2.19-7.59,3.79-12.12l6.41-17.41h5.93l2.24,36h-4.54Z" transform="translate(-32.36 -306.97)"/><path d="M332.38,391.88v36h-4.64v-36Z" transform="translate(-32.36 -306.97)"/><path d="M345.15,391.88v21.3c0,8.07,3.57,11.49,8.38,11.49,5.34,0,8.76-3.53,8.76-11.49v-21.3H367v21c0,11.06-5.82,15.6-13.62,15.6-7.37,0-12.92-4.22-12.92-15.38v-21.2Z" transform="translate(-32.36 -306.97)"/><path d="M405.38,412.06c-.26-5-.58-11.05-.53-15.54h-.16c-1.23,4.22-2.72,8.71-4.54,13.67l-6.36,17.47h-3.52l-5.82-17.15c-1.71-5.07-3.15-9.72-4.17-14h-.1c-.11,4.49-.38,10.52-.7,15.92l-1,15.43h-4.43l2.51-36h5.93l6.14,17.41c1.49,4.43,2.72,8.38,3.63,12.12h.16c.91-3.63,2.19-7.59,3.79-12.12l6.41-17.41h5.93l2.24,36h-4.54Z" transform="translate(-32.36 -306.97)"/><path class="cls-2" d="M118.12,392.52a12.19,12.19,0,1,1-6.35-10.7.74.74,0,0,1,0,1.31,4.49,4.49,0,0,0-1.84,1.53,4.51,4.51,0,0,0,4,7.08,4.47,4.47,0,0,0,2.92-1.29.73.73,0,0,1,1.24.42A12.82,12.82,0,0,1,118.12,392.52Z" transform="translate(-32.36 -306.97)"/><path class="cls-2" d="M105.93,410.56a18,18,0,1,1,15.84-26.7,1.55,1.55,0,0,0,1.36.8h0a1.55,1.55,0,0,0,1.36-2.29,21.15,21.15,0,1,0,0,20.3,1.54,1.54,0,0,0-1.35-2.29h0a1.53,1.53,0,0,0-1.36.8A18.05,18.05,0,0,1,105.93,410.56Z" transform="translate(-32.36 -306.97)"/></svg>