<svg id="Livello_1" data-name="Livello 1" xmlns="http://www.w3.org/2000/svg" viewBox="0 0 10711.16 2925.84"><defs><style>.cls-1,.cls-2,.cls-3{fill:#f7931e;}.cls-1,.cls-2{stroke:#000;stroke-miterlimit:10;}.cls-1{stroke-width:0.25px;}.cls-2{stroke-width:0.44px;}</style></defs><path class="cls-1" d="M5067.85,8721a742.23,742.23,0,0,1-175.66,480.61c-145.24,172-366.93,277.25-612.64,263.45-211.26-11.87-398.91-111.69-527-263.45A741.49,741.49,0,0,1,3578.51,8764c-11.23-199.84,56.32-383.79,174.44-523.64,136.71-161.86,341.17-264.66,569.63-264.66a742,742,0,0,1,356.91,90.86c32.29,17.65,30.9,64.64-2.57,79.94a276.31,276.31,0,0,0-161.07,235.63c-9.21,164.07,126.79,300.37,290.88,291.53a275.27,275.27,0,0,0,178.86-79.15c26.16-25.8,70.62-10.51,75.53,25.9A751.45,751.45,0,0,1,5067.85,8721Z" transform="translate(-3029.2 -7427.59)"/><path class="cls-2" d="M4322.58,9824.81c-609.64,0-1103.85-494.2-1103.85-1103.83s494.21-1103.84,1103.85-1103.84c417.65,0,781.12,231.95,968.63,574a94.64,94.64,0,0,0,83,49.17h0c71.91,0,117.64-77.05,83.07-140.1-219-399.45-642.71-670.69-1130-672.44-714-2.56-1296.54,576.64-1297.9,1290.65-1.36,715.34,578.12,1295.66,1293.16,1295.66,489.14,0,914.84-271.57,1134.56-672.16,34.65-63.17-10.87-140.38-82.92-140.38h0a94.64,94.64,0,0,0-83,49.17C5103.7,9592.86,4740.23,9824.81,4322.58,9824.81Z" transform="translate(-3029.2 -7427.59)"/><path class="cls-3" d="M6217.16,9322q60.21-105.54,164.45-164.47t233.75-58.92q151.5,0,265.47,77.7t159.29,215h-208.5q-31.06-64.74-87.4-97.13t-130.16-32.37q-79,0-140.5,36.91t-95.83,104.25q-34.31,67.34-34.31,158,0,89.37,34.31,157.34t95.83,104.89q61.5,36.91,140.5,36.91,73.83,0,130.16-33t87.4-97.78h208.5q-45.31,138.59-158.64,215.63t-266.12,77q-129.51,0-233.75-58.93t-164.45-163.81q-60.24-104.88-60.22-238.28T6217.16,9322Z" transform="translate(-3029.2 -7427.59)"/><path class="cls-3" d="M7468.11,9318.71q56.32-32.37,128.86-32.38v190.38h-47.92q-85.48,0-128.86,40.14t-43.38,139.86v357.42H7195.52V9296.69h181.29v111.38Q7411.79,9351.08,7468.11,9318.71Z" transform="translate(-3029.2 -7427.59)"/><path class="cls-3" d="M8396,9296.69v717.44h-182.6v-90.66q-35,46.65-91.29,73.18t-122.38,26.54q-84.18,0-148.94-35.61t-101.65-104.89q-36.91-69.29-36.91-165.12V9296.69h181.31v395q0,85.47,42.74,131.43t116.54,46q75.1,0,117.85-46t42.73-131.43v-395Z" transform="translate(-3029.2 -7427.59)"/><path class="cls-3" d="M9179.42,9367.27q79,81,79,226v420.88H9077.13V9617.86q0-85.44-42.74-131.43t-116.54-46q-75.12,0-118.5,46T8756,9617.86v396.27h-181.3V9296.69H8756v89.36q36.25-46.59,92.59-73.15t123.68-26.57Q9100.45,9286.33,9179.42,9367.27Z" transform="translate(-3029.2 -7427.59)"/><path class="cls-3" d="M9429.37,9460.52Q9474.69,9377,9555,9331t183.9-46q133.38,0,220.79,66.69t117.21,187.12H9881.32q-15.57-46.6-52.45-73.17t-91.3-26.54q-77.72,0-123,56.34t-45.32,159.92q0,102.33,45.32,158.64t123,56.33q110.06,0,143.75-98.42h195.55q-29.79,116.58-117.85,185.2t-220.15,68.63q-103.61,0-183.9-46t-125.6-129.5Q9384,9766.79,9384,9655.41T9429.37,9460.52Z" transform="translate(-3029.2 -7427.59)"/><path class="cls-3" d="M10759.32,9322q63.44,35.63,99.06,104.89t35.61,166.4v420.88h-181.3V9617.86q0-85.44-42.73-131.43t-116.55-46q-75.12,0-118.5,46t-43.37,131.43v396.27h-181.3v-958.3h181.3v330.22q35-46.59,93.23-73.15t129.5-26.57Q10695.86,9286.33,10759.32,9322Z" transform="translate(-3029.2 -7427.59)"/><path class="cls-3" d="M11752.57,9296.69l-444.19,1056.74h-192.95L11270.84,9996l-287.5-699.31h203.33l185.17,501.17,187.78-501.17Z" transform="translate(-3029.2 -7427.59)"/><path class="cls-3" d="M12122.29,9318.71q56.32-32.37,128.86-32.38v190.38h-47.92q-85.47,0-128.86,40.14T12031,9656.71v357.42h-181.3V9296.69H12031v111.38Q12066,9351.08,12122.29,9318.71Z" transform="translate(-3029.2 -7427.59)"/><path class="cls-3" d="M12505,9979.82q-82.87-46-130.15-130.16t-47.26-194.25q0-110.05,48.56-194.25T12508.84,9331q84.17-46,187.78-46t187.76,46q84.2,46,132.75,130.14t48.57,194.25q0,110.08-49.86,194.25t-134.69,130.16q-84.84,46-189.72,46Q12587.84,10025.79,12505,9979.82Zm279.07-136q43.4-24,69.28-71.88t25.91-116.56q0-102.28-53.75-157.33T12694,9443q-77.72,0-130.15,55t-52.44,157.33q0,102.33,51.14,157.36t128.86,55A188.59,188.59,0,0,0,12784,9843.85Z" transform="translate(-3029.2 -7427.59)"/><path class="cls-3" d="M13380.36,9055.83v958.3h-181.3v-958.3Z" transform="translate(-3029.2 -7427.59)"/><path class="cls-3" d="M13740.37,9055.83v958.3h-181.3v-958.3Z" transform="translate(-3029.2 -7427.59)"/></svg>