<svg id="Livello_1" data-name="Livello 1" xmlns="http://www.w3.org/2000/svg" viewBox="0 0 237.07 250.58"><defs><style>.cls-1,.cls-3,.cls-5,.cls-7{fill:#fff;}.cls-1,.cls-2,.cls-6,.cls-7{stroke:#000;}.cls-1,.cls-2,.cls-5,.cls-6,.cls-7{stroke-miterlimit:10;}.cls-1{stroke-width:5.12px;}.cls-2,.cls-5{stroke-width:5px;}.cls-4{fill:#f7931e;}.cls-5{stroke:#b26008;}.cls-6{stroke-width:5.65px;}.cls-7{stroke-width:5.11px;}</style></defs><path class="cls-1" d="M371,333.49V488.7a11.52,11.52,0,0,1-11.52,11.52h0a11.52,11.52,0,0,1-11.52-11.52V455.39a11.52,11.52,0,0,0-11.52-11.52h0a11.52,11.52,0,0,0-11.52,11.52V488.7a11.52,11.52,0,0,1-11.52,11.52h0a11.52,11.52,0,0,1-11.52-11.52V455.39a11.53,11.53,0,0,0-11.53-11.52h0a11.52,11.52,0,0,0-11.52,11.52v33.3a11.53,11.53,0,0,1-11.52,11.53h0a11.53,11.53,0,0,1-11.52-11.53v-33.3a11.52,11.52,0,0,0-11.52-11.52h0a11.52,11.52,0,0,0-11.52,11.52v33.3a11.53,11.53,0,0,1-11.52,11.53h0a11.53,11.53,0,0,1-11.52-11.53V333.5a78.74,78.74,0,0,1,78.74-78.74h3.85A78.73,78.73,0,0,1,371,333.49Z" transform="translate(-159.3 -252.2)"/><circle class="cls-2" cx="87.36" cy="60.94" r="14.82"/><circle class="cls-2" cx="179.09" cy="61.73" r="14.82"/><circle class="cls-3" cx="188.36" cy="54.7" r="6.49"/><circle class="cls-4" cx="87.36" cy="60.94" r="46.56"/><circle class="cls-5" cx="87.36" cy="60.94" r="37.58"/><circle class="cls-6" cx="87.36" cy="60.94" r="24.29"/><circle class="cls-3" cx="101.02" cy="50.31" r="10.63"/><path class="cls-4" d="M181.27,330.36h8.79a.34.34,0,0,1,.34.34v65.6a4.73,4.73,0,0,1-4.73,4.73h0a4.73,4.73,0,0,1-4.73-4.73v-65.6A.34.34,0,0,1,181.27,330.36Z" transform="translate(153.66 -276.38) rotate(45)"/><path class="cls-3" d="M171.23,359.73h25.41a3.69,3.69,0,0,1,3.69,3.69v0a14.12,14.12,0,0,1-14.12,14.12h-4.54a14.12,14.12,0,0,1-14.12-14.12v0a3.69,3.69,0,0,1,3.69-3.69Z" transform="translate(-366.09 -14.17) rotate(-45)"/><path class="cls-7" d="M363.06,378.68H404.4a4.17,4.17,0,0,1,4.17,4.17v0a16,16,0,0,1-16,16H374.87a16,16,0,0,1-16-16v0A4.17,4.17,0,0,1,363.06,378.68Z" transform="translate(-164.32 520.29) rotate(-90)"/></svg>